<?xml version="1.0" encoding="UTF-8"?>
<!DOCTYPE svg PUBLIC "-//W3C//DTD SVG 1.1//EN" "http://www.w3.org/Graphics/SVG/1.1/DTD/svg11.dtd">
<svg xmlns="http://www.w3.org/2000/svg" version="1.1" width="120px" height="120px" style="shape-rendering:geometricPrecision; text-rendering:geometricPrecision; image-rendering:optimizeQuality; fill-rule:evenodd; clip-rule:evenodd" xmlns:xlink="http://www.w3.org/1999/xlink">
<g><path fill="#f5c514" d="M 60.5,22.5 C 72.7017,21.7362 83.535,25.0695 93,32.5C 98.5375,40.9549 98.8708,49.6216 94,58.5C 89.3562,61.6149 85.3562,60.9483 82,56.5C 81.6667,51.5 81.3333,46.5 81,41.5C 74.5153,35.8858 67.0153,34.0524 58.5,36C 44.8537,39.6342 41.8537,47.3009 49.5,59C 59.6256,64.3782 69.9589,69.3782 80.5,74C 91.3362,80.1787 95.1695,89.3454 92,101.5C 89.6867,109.816 84.52,115.649 76.5,119C 65.7434,122.324 54.7434,123.324 43.5,122C 22.8616,117.71 16.5283,106.044 24.5,87C 31.0393,83.7808 35.0393,85.6141 36.5,92.5C 33.7084,101.199 36.7084,106.699 45.5,109C 54.0103,110.114 62.3437,109.448 70.5,107C 76.1088,103.723 77.9422,98.8897 76,92.5C 74.8783,90.3762 73.3783,88.5429 71.5,87C 61.9516,82.3923 52.285,78.0589 42.5,74C 28.2808,64.2897 25.1141,51.7897 33,36.5C 40.2901,27.9389 49.4567,23.2723 60.5,22.5 Z"/></g>
</svg>
